{"title":"Assault on Wall Street 2013 BRRip 720p x264 - PRiSTiNE [P2PDL]","uid":8651886,"size":692991843,"categoryP":"video","categoryS":"hd___movies","magnet":"?xt=urn:btih:bc0fd4c37c23ff73820d01c8074d6907194e7cc4&amp;dn=Assault+on+Wall+Street+2013+BRRip+720p+x264+-+PRiSTiNE+%5BP2PDL%5D&amp;tr=udp%3A%2F%2Ftracker.openbittorrent.com%3A80&amp;tr=udp%3A%2F%2Fopen.demonii.com%3A1337&amp;tr=udp%3A%2F%2Ftracker.coppersurfer.tk%3A6969&amp;tr=udp%3A%2F%2Fexodus.desync.com%3A6969","seeders":1,"leechers":0,"uploader":"ValidusVyto","files":-1,"time":1373128102,"description":"_______ Visit us at our Semi Public Bittorrent Community ________\n  &lt;a href=&quot;\nhttp://p2pdl.com&quot; rel=&quot;nofollow&quot; target=&quot;_NEW&quot;&gt;\nhttp://p2pdl.com&lt;/a&gt;  _____________________________ &lt;a href=&quot; http://p2pdl.com&quot; rel=&quot;nofollow&quot; target=&quot;_NEW&quot;&gt; http://p2pdl.com&lt;/a&gt;\n\n\nAssault on Wall Street 2013 BRRip 720p x264 - PRiSTiNE\n\n\nOriginal Title: Bailout: The Age of Greed\nGenre: Drama | Thriller \nPlot: Jim is an average New Yorker living a peaceful life with a well paying job and\na loving family. Suddenly, everything changes when the economy crashes causing Jim to\nlose everything.\nDirector: Uwe Boll\nStars: Dominic Purcell, Erin Karpluk, Edward Furlong.\nRated: R for strong violence and pervasive language.\n\nInfo: &lt;a href=&quot;\nhttp://www.imdb.com/title/tt2368553/&quot; rel=&quot;nofollow&quot; target=&quot;_NEW&quot;&gt;\nhttp://www.imdb.com/title/tt2368553/&lt;/a&gt;\n\nTrailer:\n\n\nFormat                         : MPEG-4\nFile size                      : 650 MiB\nDuration                       : 1h 38mn\nOverall bit rate               : 919 Kbps\nSource                         : 720p.BluRay.x264-HDWinG\n\nVideo\nFormat                         : AVC\nBit rate                       : 837 Kbps\nWidth                          : 1 280 pixels\nHeight                         : 720 pixels\nDisplay aspect ratio           : 16:9\nFrame rate mode                : Constant\nFrame rate                     : 23.976 fps\nStream size                    : 592 MiB (91%)\nWriting library                : x264 core 130 r2273\nAudio\nFormat                         : AAC\nBit rate mode                  : Variable\nBit rate                       : 80.0 Kbps\nChannel(s)                     : 2 channels\nChannel positions              : Front: L R\nSampling rate                  : 48.0 KHz\nStream size                    : 56.6 MiB (9%)\nLanguage                       : English\n &lt;a href=&quot;\nhttp://ultraimg.com/images/gwk63.png&quot; rel=&quot;nofollow&quot; target=&quot;_NEW&quot;&gt;\nhttp://ultraimg.com/images/gwk63.png&lt;/a&gt; &lt;a href=&quot;\nhttp://ultraimg.com/images/mCLJN.png&quot; rel=&quot;nofollow&quot; target=&quot;_NEW&quot;&gt;\nhttp://ultraimg.com/images/mCLJN.png&lt;/a&gt; &lt;a href=&quot;\nhttp://ultraimg.com/images/Y7AXU.png&quot; rel=&quot;nofollow&quot; target=&quot;_NEW&quot;&gt;\nhttp://ultraimg.com/images/Y7AXU.png&lt;/a&gt; &lt;a href=&quot;\nhttp://ultraimg.com/images/VOc1i.png&quot; rel=&quot;nofollow&quot; target=&quot;_NEW&quot;&gt;\nhttp://ultraimg.com/images/VOc1i.png&lt;/a&gt; &lt;a href=&quot;\nhttp://ultraimg.com/images/rAmMx.png&quot; rel=&quot;nofollow&quot; target=&quot;_NEW&quot;&gt;\nhttp://ultraimg.com/images/rAmMx.png&lt;/a&gt; &lt;a href=&quot;\nhttp://ultraimg.com/images/sdwq.png&quot; rel=&quot;nofollow&quot; target=&quot;_NEW&quot;&gt;\nhttp://ultraimg.com/images/sdwq.png&lt;/a&gt; &lt;a href=&quot;\nhttp://ultraimg.com/images/lhOQt.png&quot; rel=&quot;nofollow&quot; target=&quot;_NEW&quot;&gt;\nhttp://ultraimg.com/images/lhOQt.png&lt;/a&gt; &lt;a href=&quot;\nhttp://ultraimg.com/images/4Vuoq.png&quot; rel=&quot;nofollow&quot; target=&quot;_NEW&quot;&gt;\nhttp://ultraimg.com/images/4Vuoq.png&lt;/a&gt;\n\n\n----------------------------------------------------------------------------------------------------\n\n\nEncoded using revolutionary 10bit encoding, which enables us to provide you more crispier \nand sharper images at small sizes, just make sure you follow our instructions without a fault.\nRecommend to you to use latest version of VLC player. Install K-Lite Codec Pack or shark007 codecs\nin case of any kind of problem in playback (For non-VLC Media Player users). Alternatively, install\nCore AVC codecs, the fastest decoder that there is coupled with Community Center Codec Pack and play\non Windows Media Player Classic. Check sample to be sure.\nEnjoy!\n\nEncoder Notes:Looking For Early Access To Anything You Can Provide DVDScr, R5, DVDR, BluRay, Direct\nAudio, Music Releases and Seedboxes. We require dedicated servers, so as to do more \nand fast releases of movies.\nIf You Got anything to offer please contact us at &quot;&lt;a class=&quot;__cf_email__&quot; href=&quot;/cdn-cgi/l/email-protection&quot; data-cfemail=&quot;6a0905041e0b091e2a1a581a0e0644090507&quot;&gt;[email&amp;#160;protected]&lt;/a&gt;&lt;script cf-hash='f9e31' type=&quot;text/javascript&quot;&gt;\n/* &lt;![CDATA[ */!function(){try{var t=&quot;currentScript&quot;in document?document.currentScript:function(){for(var t=document.getElementsByTagName(&quot;script&quot;),e=t.length;e--;)if(t[e].getAttribute(&quot;cf-hash&quot;))return t[e]}();if(t&amp;&amp;t.previousSibling){var e,r,n,i,c=t.previousSibling,a=c.getAttribute(&quot;data-cfemail&quot;);if(a){for(e=&quot;&quot;,r=parseInt(a.substr(0,2),16),n=2;a.length-n;n+=2)i=parseInt(a.substr(n,2),16)^r,e+=String.fromCharCode(i);e=document.createTextNode(e),c.parentNode.replaceChild(e,c)}}}catch(u){}}();/* ]]&gt; */&lt;/script&gt;&quot;.\n\nFace book Fan Page:   &lt;a href=&quot;\nhttp://fbl.me/BC&quot; rel=&quot;nofollow&quot; target=&quot;_NEW&quot;&gt;\nhttp://fbl.me/BC&lt;/a&gt;","torrent":{"xt":"urn:btih:bc0fd4c37c23ff73820d01c8074d6907194e7cc4","amp;dn":"Assault+on+Wall+Street+2013+BRRip+720p+x264+-+PRiSTiNE+%5BP2PDL%5D","amp;tr":["udp%3A%2F%2Ftracker.openbittorrent.com%3A80","udp%3A%2F%2Fopen.demonii.com%3A1337","udp%3A%2F%2Ftracker.coppersurfer.tk%3A6969","udp%3A%2F%2Fexodus.desync.com%3A6969"],"infoHash":"bc0fd4c37c23ff73820d01c8074d6907194e7cc4","infoHashBuffer":{"type":"Buffer","data":[188,15,212,195,124,35,255,115,130,13,1,200,7,77,105,7,25,78,124,196]},"announce":[],"urlList":[]}}